<?xml version="1.0" standalone="yes"?>

<svg version="1.1" viewBox="0.0 0.0 800.4120734908137 352.5774278215223" fill="none" stroke="none" stroke-linecap="square" stroke-miterlimit="10" xmlns="http://www.w3.org/2000/svg" xmlns:xlink="http://www.w3.org/1999/xlink"><clipPath id="p.0"><path d="m0 0l800.41205 0l0 352.57742l-800.41205 0l0 -352.57742z" clip-rule="nonzero"></path></clipPath><g clip-path="url(#p.0)"><path fill="#000000" fill-opacity="0.0" d="m0 0l800.41205 0l0 352.57742l-800.41205 0z" fill-rule="evenodd"></path><path fill="#000000" fill-opacity="0.0" d="m10.362205 222.8924l140.28348 0l0 70.48819l-140.28348 0z" fill-rule="evenodd"></path><path stroke="#d5a6bd" stroke-width="4.0" stroke-linejoin="round" stroke-linecap="butt" d="m10.362205 222.8924l140.28348 0l0 70.48819l-140.28348 0z" fill-rule="evenodd"></path><path fill="#000000" d="m50.25728 265.0565l0 -13.59375l1.796875 0l0 6.734375l6.765625 -6.734375l2.4375 0l-5.703125 5.5l5.953125 8.09375l-2.375 0l-4.84375 -6.890625l-2.234375 2.171875l0 4.71875l-1.796875 0zm18.756073 0l0 -1.453125q-1.140625 1.671875 -3.125 1.671875q-0.859375 0 -1.625 -0.328125q-0.75 -0.34375 -1.125 -0.84375q-0.359375 -0.5 -0.515625 -1.234375q-0.09375 -0.5 -0.09375 -1.5625l0 -6.109375l1.671875 0l0 5.46875q0 1.3125 0.09375 1.765625q0.15625 0.65625 0.671875 1.03125q0.515625 0.375 1.265625 0.375q0.75 0 1.40625 -0.375q0.65625 -0.390625 0.921875 -1.046875q0.28125 -0.671875 0.28125 -1.9375l0 -5.28125l1.671875 0l0 9.859375l-1.5 0zm5.469467 0l-1.546875 0l0 -13.59375l1.65625 0l0 4.84375q1.0625 -1.328125 2.703125 -1.328125q0.90625 0 1.71875 0.375q0.8125 0.359375 1.328125 1.03125q0.53125 0.65625 0.828125 1.59375q0.296875 0.9375 0.296875 2.0q0 2.53125 -1.25 3.921875q-1.25 1.375 -3.0 1.375q-1.75 0 -2.734375 -1.453125l0 1.234375zm-0.015625 -5.0q0 1.765625 0.46875 2.5625q0.796875 1.28125 2.140625 1.28125q1.09375 0 1.890625 -0.9375q0.796875 -0.953125 0.796875 -2.84375q0 -1.921875 -0.765625 -2.84375q-0.765625 -0.921875 -1.84375 -0.921875q-1.09375 0 -1.890625 0.953125q-0.796875 0.953125 -0.796875 2.75zm15.594467 1.828125l1.71875 0.21875q-0.40625 1.5 -1.515625 2.34375q-1.09375 0.828125 -2.8125 0.828125q-2.15625 0 -3.421875 -1.328125q-1.265625 -1.328125 -1.265625 -3.734375q0 -2.484375 1.265625 -3.859375q1.28125 -1.375 3.328125 -1.375q1.984375 0 3.234375 1.34375q1.25 1.34375 1.25 3.796875q0 0.140625 -0.015625 0.4375l-7.34375 0q0.09375 1.625 0.921875 2.484375q0.828125 0.859375 2.0625 0.859375q0.90625 0 1.546875 -0.46875q0.65625 -0.484375 1.046875 -1.546875zm-5.484375 -2.703125l5.5 0q-0.109375 -1.234375 -0.625 -1.859375q-0.796875 -0.96875 -2.078125 -0.96875q-1.140625 0 -1.9375 0.78125q-0.78125 0.765625 -0.859375 2.046875zm9.078842 5.875l0 -13.59375l1.671875 0l0 13.59375l-1.671875 0zm10.926071 -3.171875l1.71875 0.21875q-0.40625 1.5 -1.515625 2.34375q-1.09375 0.828125 -2.8125 0.828125q-2.15625 0 -3.421875 -1.328125q-1.265625 -1.328125 -1.265625 -3.734375q0 -2.484375 1.265625 -3.859375q1.28125 -1.375 3.328125 -1.375q1.984375 0 3.234375 1.34375q1.25 1.34375 1.25 3.796875q0 0.140625 -0.015625 0.4375l-7.34375 0q0.09375 1.625 0.921875 2.484375q0.828125 0.859375 2.0625 0.859375q0.90625 0 1.546875 -0.46875q0.65625 -0.484375 1.046875 -1.546875zm-5.484375 -2.703125l5.5 0q-0.109375 -1.234375 -0.625 -1.859375q-0.796875 -0.96875 -2.078125 -0.96875q-1.140625 0 -1.9375 0.78125q-0.78125 0.765625 -0.859375 2.046875zm12.766342 4.375l0.234375 1.484375q-0.703125 0.140625 -1.265625 0.140625q-0.90625 0 -1.40625 -0.28125q-0.5 -0.296875 -0.703125 -0.75q-0.203125 -0.46875 -0.203125 -1.984375l0 -5.65625l-1.234375 0l0 -1.3125l1.234375 0l0 -2.4375l1.65625 -1.0l0 3.4375l1.6875 0l0 1.3125l-1.6875 0l0 5.75q0 0.71875 0.078125 0.921875q0.09375 0.203125 0.296875 0.328125q0.203125 0.125 0.578125 0.125q0.265625 0 0.734375 -0.078125z" fill-rule="nonzero"></path><path fill="#000000" fill-opacity="0.0" d="m261.8189 222.8924l140.28345 0l0 70.48819l-140.28345 0z" fill-rule="evenodd"></path><path stroke="#d5a6bd" stroke-width="4.0" stroke-linejoin="round" stroke-linecap="butt" d="m261.8189 222.8924l140.28345 0l0 70.48819l-140.28345 0z" fill-rule="evenodd"></path><path fill="#000000" d="m312.98102 265.0565l0 -9.859375l1.5 0l0 1.5q0.578125 -1.046875 1.0625 -1.375q0.484375 -0.34375 1.078125 -0.34375q0.84375 0 1.71875 0.546875l-0.578125 1.546875q-0.609375 -0.359375 -1.234375 -0.359375q-0.546875 0 -0.984375 0.328125q-0.421875 0.328125 -0.609375 0.90625q-0.28125 0.890625 -0.28125 1.953125l0 5.15625l-1.671875 0zm6.243927 0l0 -13.59375l1.671875 0l0 7.75l3.953125 -4.015625l2.15625 0l-3.765625 3.65625l4.140625 6.203125l-2.0625 0l-3.25 -5.03125l-1.171875 1.125l0 3.90625l-1.671875 0zm12.96875 -1.5l0.234375 1.484375q-0.703125 0.140625 -1.265625 0.140625q-0.90625 0 -1.40625 -0.28125q-0.5 -0.296875 -0.703125 -0.75q-0.203125 -0.46875 -0.203125 -1.984375l0 -5.65625l-1.234375 0l0 -1.3125l1.234375 0l0 -2.4375l1.65625 -1.0l0 3.4375l1.6875 0l0 1.3125l-1.6875 0l0 5.75q0 0.71875 0.078125 0.921875q0.09375 0.203125 0.296875 0.328125q0.203125 0.125 0.578125 0.125q0.265625 0 0.734375 -0.078125zm1.4958191 1.5l0 -13.59375l1.671875 0l0 13.59375l-1.671875 0zm10.926056 -3.171875l1.71875 0.21875q-0.40625 1.5 -1.515625 2.34375q-1.09375 0.828125 -2.8125 0.828125q-2.15625 0 -3.421875 -1.328125q-1.265625 -1.328125 -1.265625 -3.734375q0 -2.484375 1.265625 -3.859375q1.28125 -1.375 3.328125 -1.375q1.984375 0 3.234375 1.34375q1.25 1.34375 1.25 3.796875q0 0.140625 -0.015625 0.4375l-7.34375 0q0.09375 1.625 0.921875 2.484375q0.828125 0.859375 2.0625 0.859375q0.90625 0 1.546875 -0.46875q0.65625 -0.484375 1.046875 -1.546875zm-5.484375 -2.703125l5.5 0q-0.109375 -1.234375 -0.625 -1.859375q-0.796875 -0.96875 -2.078125 -0.96875q-1.140625 0 -1.9375 0.78125q-0.78125 0.765625 -0.859375 2.046875zm12.766357 4.375l0.234375 1.484375q-0.703125 0.140625 -1.265625 0.140625q-0.90625 0 -1.40625 -0.28125q-0.5 -0.296875 -0.703125 -0.75q-0.203125 -0.46875 -0.203125 -1.984375l0 -5.65625l-1.234375 0l0 -1.3125l1.234375 0l0 -2.4375l1.65625 -1.0l0 3.4375l1.6875 0l0 1.3125l-1.6875 0l0 5.75q0 0.71875 0.078125 0.921875q0.09375 0.203125 0.296875 0.328125q0.203125 0.125 0.578125 0.125q0.265625 0 0.734375 -0.078125z" fill-rule="nonzero"></path><path fill="#000000" fill-opacity="0.0" d="m150.64568 258.13647l111.18111 0" fill-rule="evenodd"></path><path stroke="#d5a6bd" stroke-width="4.0" stroke-linejoin="round" stroke-linecap="butt" d="m150.64568 258.13647l87.18109 0" fill-rule="evenodd"></path><path fill="#d5a6bd" stroke="#d5a6bd" stroke-width="4.0" stroke-linecap="butt" d="m237.82677 264.7434l18.15239 -6.6069336l-18.15239 -6.6069183z" fill-rule="evenodd"></path><path fill="#000000" fill-opacity="0.0" d="m166.45407 208.35432l79.55905 0l0 41.606308l-79.55905 0z" fill-rule="evenodd"></path><path stroke="#4a86e8" stroke-width="2.0" stroke-linejoin="round" stroke-linecap="butt" stroke-dasharray="2.0,6.0" d="m166.45407 208.35432l79.55905 0l0 41.606308l-79.55905 0z" fill-rule="evenodd"></path><path fill="#000000" d="m189.0406 236.08682l1.609375 0.25q0.109375 0.75 0.578125 1.09375q0.609375 0.453125 1.6875 0.453125q1.171875 0 1.796875 -0.46875q0.625 -0.453125 0.859375 -1.28125q0.125 -0.515625 0.109375 -2.15625q-1.09375 1.296875 -2.71875 1.296875q-2.03125 0 -3.15625 -1.46875q-1.109375 -1.46875 -1.109375 -3.515625q0 -1.40625 0.515625 -2.59375q0.515625 -1.203125 1.484375 -1.84375q0.96875 -0.65625 2.265625 -0.65625q1.75 0 2.875 1.40625l0 -1.1875l1.546875 0l0 8.515625q0 2.3125 -0.46875 3.265625q-0.46875 0.96875 -1.484375 1.515625q-1.015625 0.5625 -2.5 0.5625q-1.765625 0 -2.859375 -0.796875q-1.078125 -0.796875 -1.03125 -2.390625zm1.375 -5.921875q0 1.953125 0.765625 2.84375q0.78125 0.890625 1.9375 0.890625q1.140625 0 1.921875 -0.890625q0.78125 -0.890625 0.78125 -2.78125q0 -1.8125 -0.8125 -2.71875q-0.796875 -0.921875 -1.921875 -0.921875q-1.109375 0 -1.890625 0.90625q-0.78125 0.890625 -0.78125 2.671875zm9.281967 5.109375l0 -9.859375l1.5 0l0 1.5q0.578125 -1.046875 1.0625 -1.375q0.484375 -0.34375 1.078125 -0.34375q0.84375 0 1.71875 0.546875l-0.578125 1.546875q-0.609375 -0.359375 -1.234375 -0.359375q-0.546875 0 -0.984375 0.328125q-0.421875 0.328125 -0.609375 0.90625q-0.28125 0.890625 -0.28125 1.953125l0 5.15625l-1.671875 0zm6.228302 3.78125l0 -13.640625l1.53125 0l0 1.28125q0.53125 -0.75 1.203125 -1.125q0.6875 -0.375 1.640625 -0.375q1.265625 0 2.234375 0.65625q0.96875 0.640625 1.453125 1.828125q0.5 1.1875 0.5 2.59375q0 1.515625 -0.546875 2.734375q-0.546875 1.203125 -1.578125 1.84375q-1.03125 0.640625 -2.171875 0.640625q-0.84375 0 -1.515625 -0.34375q-0.65625 -0.359375 -1.078125 -0.890625l0 4.796875l-1.671875 0zm1.515625 -8.65625q0 1.90625 0.765625 2.8125q0.78125 0.90625 1.875 0.90625q1.109375 0 1.890625 -0.9375q0.796875 -0.9375 0.796875 -2.921875q0 -1.875 -0.78125 -2.8125q-0.765625 -0.9375 -1.84375 -0.9375q-1.0625 0 -1.890625 1.0q-0.8125 1.0 -0.8125 2.890625zm15.297592 1.265625l1.640625 0.21875q-0.265625 1.6875 -1.375 2.65625q-1.109375 0.953125 -2.734375 0.953125q-2.015625 0 -3.25 -1.3125q-1.21875 -1.328125 -1.21875 -3.796875q0 -1.59375 0.515625 -2.78125q0.53125 -1.203125 1.609375 -1.796875q1.09375 -0.609375 2.359375 -0.609375q1.609375 0 2.625 0.8125q1.015625 0.8125 1.3125 2.3125l-1.625 0.25q-0.234375 -1.0 -0.828125 -1.5q-0.59375 -0.5 -1.421875 -0.5q-1.265625 0 -2.0625 0.90625q-0.78125 0.90625 -0.78125 2.859375q0 1.984375 0.765625 2.890625q0.765625 0.890625 1.984375 0.890625q0.984375 0 1.640625 -0.59375q0.65625 -0.609375 0.84375 -1.859375z" fill-rule="nonzero"></path><path fill="#000000" fill-opacity="0.0" d="m554.8688 217.96063l140.28345 0l0 70.48819l-140.28345 0z" fill-rule="evenodd"></path><path stroke="#d5a6bd" stroke-width="4.0" stroke-linejoin="round" stroke-linecap="butt" d="m554.8688 217.96063l140.28345 0l0 70.48819l-140.28345 0z" fill-rule="evenodd"></path><path fill="#000000" d="m615.8828 260.12473l0 -9.859375l1.5 0l0 1.5q0.578125 -1.046875 1.0625 -1.375q0.484375 -0.34375 1.078125 -0.34375q0.84375 0 1.71875 0.546875l-0.578125 1.546875q-0.609375 -0.359375 -1.234375 -0.359375q-0.546875 0 -0.984375 0.328125q-0.421875 0.328125 -0.609375 0.90625q-0.28125 0.890625 -0.28125 1.953125l0 5.15625l-1.671875 0zm6.2439575 0l0 -13.59375l1.671875 0l0 7.75l3.953125 -4.015625l2.15625 0l-3.765625 3.65625l4.140625 6.203125l-2.0625 0l-3.25 -5.03125l-1.171875 1.125l0 3.90625l-1.671875 0zm12.96875 -1.5l0.234375 1.484375q-0.703125 0.140625 -1.265625 0.140625q-0.90625 0 -1.40625 -0.28125q-0.5 -0.296875 -0.703125 -0.75q-0.203125 -0.46875 -0.203125 -1.984375l0 -5.65625l-1.234375 0l0 -1.3125l1.234375 0l0 -2.4375l1.65625 -1.0l0 3.4375l1.6875 0l0 1.3125l-1.6875 0l0 5.75q0 0.71875 0.078125 0.921875q0.09375 0.203125 0.296875 0.328125q0.203125 0.125 0.578125 0.125q0.265625 0 0.734375 -0.078125z" fill-rule="nonzero"></path><path fill="#000000" fill-opacity="0.0" d="m570.8688 233.96063l140.28345 0l0 70.48819l-140.28345 0z" fill-rule="evenodd"></path><path stroke="#d5a6bd" stroke-width="4.0" stroke-linejoin="round" stroke-linecap="butt" d="m570.8688 233.96063l140.28345 0l0 70.48819l-140.28345 0z" fill-rule="evenodd"></path><path fill="#000000" d="m631.8828 276.12473l0 -9.859375l1.5 0l0 1.5q0.578125 -1.046875 1.0625 -1.375q0.484375 -0.34375 1.078125 -0.34375q0.84375 0 1.71875 0.546875l-0.578125 1.546875q-0.609375 -0.359375 -1.234375 -0.359375q-0.546875 0 -0.984375 0.328125q-0.421875 0.328125 -0.609375 0.90625q-0.28125 0.890625 -0.28125 1.953125l0 5.15625l-1.671875 0zm6.2439575 0l0 -13.59375l1.671875 0l0 7.75l3.953125 -4.015625l2.15625 0l-3.765625 3.65625l4.140625 6.203125l-2.0625 0l-3.25 -5.03125l-1.171875 1.125l0 3.90625l-1.671875 0zm12.96875 -1.5l0.234375 1.484375q-0.703125 0.140625 -1.265625 0.140625q-0.90625 0 -1.40625 -0.28125q-0.5 -0.296875 -0.703125 -0.75q-0.203125 -0.46875 -0.203125 -1.984375l0 -5.65625l-1.234375 0l0 -1.3125l1.234375 0l0 -2.4375l1.65625 -1.0l0 3.4375l1.6875 0l0 1.3125l-1.6875 0l0 5.75q0 0.71875 0.078125 0.921875q0.09375 0.203125 0.296875 0.328125q0.203125 0.125 0.578125 0.125q0.265625 0 0.734375 -0.078125z" fill-rule="nonzero"></path><path fill="#000000" fill-opacity="0.0" d="m586.8688 249.96063l140.28345 0l0 70.48819l-140.28345 0z" fill-rule="evenodd"></path><path stroke="#d5a6bd" stroke-width="4.0" stroke-linejoin="round" stroke-linecap="butt" d="m586.8688 249.96063l140.28345 0l0 70.48819l-140.28345 0z" fill-rule="evenodd"></path><path fill="#000000" d="m647.8828 292.12473l0 -9.859375l1.5 0l0 1.5q0.578125 -1.046875 1.0625 -1.375q0.484375 -0.34375 1.078125 -0.34375q0.84375 0 1.71875 0.546875l-0.578125 1.546875q-0.609375 -0.359375 -1.234375 -0.359375q-0.546875 0 -0.984375 0.328125q-0.421875 0.328125 -0.609375 0.90625q-0.28125 0.890625 -0.28125 1.953125l0 5.15625l-1.671875 0zm6.2439575 0l0 -13.59375l1.671875 0l0 7.75l3.953125 -4.015625l2.15625 0l-3.765625 3.65625l4.140625 6.203125l-2.0625 0l-3.25 -5.03125l-1.171875 1.125l0 3.90625l-1.671875 0zm12.96875 -1.5l0.234375 1.484375q-0.703125 0.140625 -1.265625 0.140625q-0.90625 0 -1.40625 -0.28125q-0.5 -0.296875 -0.703125 -0.75q-0.203125 -0.46875 -0.203125 -1.984375l0 -5.65625l-1.234375 0l0 -1.3125l1.234375 0l0 -2.4375l1.65625 -1.0l0 3.4375l1.6875 0l0 1.3125l-1.6875 0l0 5.75q0 0.71875 0.078125 0.921875q0.09375 0.203125 0.296875 0.328125q0.203125 0.125 0.578125 0.125q0.265625 0 0.734375 -0.078125z" fill-rule="nonzero"></path><path fill="#000000" fill-opacity="0.0" d="m418.1076 96.490814l140.28345 0l0 70.48819l-140.28345 0z" fill-rule="evenodd"></path><path stroke="#d5a6bd" stroke-width="4.0" stroke-linejoin="round" stroke-linecap="butt" d="m418.1076 96.490814l140.28345 0l0 70.48819l-140.28345 0z" fill-rule="evenodd"></path><path fill="#000000" d="m454.0975 135.7174l1.65625 -0.265625q0.140625 1.0 0.765625 1.53125q0.640625 0.515625 1.78125 0.515625q1.15625 0 1.703125 -0.46875q0.5625 -0.46875 0.5625 -1.09375q0 -0.5625 -0.484375 -0.890625q-0.34375 -0.21875 -1.703125 -0.5625q-1.84375 -0.46875 -2.5625 -0.796875q-0.703125 -0.34375 -1.078125 -0.9375q-0.359375 -0.609375 -0.359375 -1.328125q0 -0.65625 0.296875 -1.21875q0.3125 -0.5625 0.828125 -0.9375q0.390625 -0.28125 1.0625 -0.484375q0.671875 -0.203125 1.4375 -0.203125q1.171875 0 2.046875 0.34375q0.875 0.328125 1.28125 0.90625q0.421875 0.5625 0.578125 1.515625l-1.625 0.21875q-0.109375 -0.75 -0.65625 -1.171875q-0.53125 -0.4375 -1.5 -0.4375q-1.15625 0 -1.640625 0.390625q-0.484375 0.375 -0.484375 0.875q0 0.328125 0.203125 0.59375q0.203125 0.265625 0.640625 0.4375q0.25 0.09375 1.46875 0.4375q1.765625 0.46875 2.46875 0.765625q0.703125 0.296875 1.09375 0.875q0.40625 0.578125 0.40625 1.4375q0 0.828125 -0.484375 1.578125q-0.484375 0.734375 -1.40625 1.140625q-0.921875 0.390625 -2.078125 0.390625q-1.921875 0 -2.9375 -0.796875q-1.0 -0.796875 -1.28125 -2.359375zm9.921875 6.734375l-0.171875 -1.5625q0.546875 0.140625 0.953125 0.140625q0.546875 0 0.875 -0.1875q0.34375 -0.1875 0.5625 -0.515625q0.15625 -0.25 0.5 -1.25q0.046875 -0.140625 0.15625 -0.40625l-3.734375 -9.875l1.796875 0l2.046875 5.71875q0.40625 1.078125 0.71875 2.28125q0.28125 -1.15625 0.6875 -2.25l2.09375 -5.75l1.671875 0l-3.75 10.03125q-0.59375 1.625 -0.9375 2.234375q-0.4375 0.828125 -1.015625 1.203125q-0.578125 0.390625 -1.375 0.390625q-0.484375 0 -1.078125 -0.203125zm8.734375 -6.734375l1.65625 -0.265625q0.140625 1.0 0.765625 1.53125q0.640625 0.515625 1.78125 0.515625q1.15625 0 1.703125 -0.46875q0.5625 -0.46875 0.5625 -1.09375q0 -0.5625 -0.484375 -0.890625q-0.34375 -0.21875 -1.703125 -0.5625q-1.84375 -0.46875 -2.5625 -0.796875q-0.703125 -0.34375 -1.078125 -0.9375q-0.359375 -0.609375 -0.359375 -1.328125q0 -0.65625 0.296875 -1.21875q0.3125 -0.5625 0.828125 -0.9375q0.390625 -0.28125 1.0625 -0.484375q0.671875 -0.203125 1.4375 -0.203125q1.171875 0 2.046875 0.34375q0.875 0.328125 1.28125 0.90625q0.421875 0.5625 0.578125 1.515625l-1.625 0.21875q-0.109375 -0.75 -0.65625 -1.171875q-0.53125 -0.4375 -1.5 -0.4375q-1.15625 0 -1.640625 0.390625q-0.484375 0.375 -0.484375 0.875q0 0.328125 0.203125 0.59375q0.203125 0.265625 0.640625 0.4375q0.25 0.09375 1.46875 0.4375q1.765625 0.46875 2.46875 0.765625q0.703125 0.296875 1.09375 0.875q0.40625 0.578125 0.40625 1.4375q0 0.828125 -0.484375 1.578125q-0.484375 0.734375 -1.40625 1.140625q-0.921875 0.390625 -2.078125 0.390625q-1.921875 0 -2.9375 -0.796875q-1.0 -0.796875 -1.28125 -2.359375zm13.65625 1.4375l0.234375 1.484375q-0.703125 0.140625 -1.265625 0.140625q-0.90625 0 -1.40625 -0.28125q-0.5 -0.296875 -0.703125 -0.75q-0.203125 -0.46875 -0.203125 -1.984375l0 -5.65625l-1.234375 0l0 -1.3125l1.234375 0l0 -2.4375l1.65625 -1.0l0 3.4375l1.6875 0l0 1.3125l-1.6875 0l0 5.75q0 0.71875 0.078125 0.921875q0.09375 0.203125 0.296875 0.328125q0.203125 0.125 0.578125 0.125q0.265625 0 0.734375 -0.078125zm8.277069 -1.671875l1.71875 0.21875q-0.40625 1.5 -1.515625 2.34375q-1.09375 0.828125 -2.8125 0.828125q-2.15625 0 -3.421875 -1.328125q-1.265625 -1.328125 -1.265625 -3.734375q0 -2.484375 1.265625 -3.859375q1.28125 -1.375 3.328125 -1.375q1.984375 0 3.234375 1.34375q1.25 1.34375 1.25 3.796875q0 0.140625 -0.015625 0.4375l-7.34375 0q0.09375 1.625 0.921875 2.484375q0.828125 0.859375 2.0625 0.859375q0.90625 0 1.546875 -0.46875q0.65625 -0.484375 1.046875 -1.546875zm-5.484375 -2.703125l5.5 0q-0.109375 -1.234375 -0.625 -1.859375q-0.796875 -0.96875 -2.078125 -0.96875q-1.140625 0 -1.9375 0.78125q-0.78125 0.765625 -0.859375 2.046875zm9.110077 5.875l0 -9.859375l1.5 0l0 1.390625q0.453125 -0.71875 1.21875 -1.15625q0.78125 -0.453125 1.765625 -0.453125q1.09375 0 1.796875 0.453125q0.703125 0.453125 0.984375 1.28125q1.171875 -1.734375 3.046875 -1.734375q1.46875 0 2.25 0.8125q0.796875 0.8125 0.796875 2.5l0 6.765625l-1.671875 0l0 -6.203125q0 -1.0 -0.15625 -1.4375q-0.15625 -0.453125 -0.59375 -0.71875q-0.421875 -0.265625 -1.0 -0.265625q-1.03125 0 -1.71875 0.6875q-0.6875 0.6875 -0.6875 2.21875l0 5.71875l-1.671875 0l0 -6.40625q0 -1.109375 -0.40625 -1.65625q-0.40625 -0.5625 -1.34375 -0.5625q-0.703125 0 -1.3125 0.375q-0.59375 0.359375 -0.859375 1.078125q-0.265625 0.71875 -0.265625 2.0625l0 5.109375l-1.671875 0zm21.931427 0l0 -1.25q-0.9375 1.46875 -2.75 1.46875q-1.171875 0 -2.171875 -0.640625q-0.984375 -0.65625 -1.53125 -1.8125q-0.53125 -1.171875 -0.53125 -2.6875q0 -1.46875 0.484375 -2.671875q0.5 -1.203125 1.46875 -1.84375q0.984375 -0.640625 2.203125 -0.640625q0.890625 0 1.578125 0.375q0.703125 0.375 1.140625 0.984375l0 -4.875l1.65625 0l0 13.59375l-1.546875 0zm-5.28125 -4.921875q0 1.890625 0.796875 2.828125q0.8125 0.9375 1.890625 0.9375q1.09375 0 1.859375 -0.890625q0.765625 -0.890625 0.765625 -2.734375q0 -2.015625 -0.78125 -2.953125q-0.78125 -0.953125 -1.921875 -0.953125q-1.109375 0 -1.859375 0.90625q-0.75 0.90625 -0.75 2.859375z" fill-rule="nonzero"></path><path fill="#000000" fill-opacity="0.0" d="m331.96063 222.8924l86.14172 -91.14961" fill-rule="evenodd"></path><path stroke="#d5a6bd" stroke-width="4.0" stroke-linejoin="round" stroke-linecap="butt" d="m331.96063 222.8924l69.657104 -73.70665" fill-rule="evenodd"></path><path fill="#d5a6bd" stroke="#d5a6bd" stroke-width="4.0" stroke-linecap="butt" d="m406.4196 153.72379l7.6662903 -17.731018l-17.269989 8.654953z" fill-rule="evenodd"></path><path fill="#000000" fill-opacity="0.0" d="m228.4462 137.12993l136.75592 0l0 41.606293l-136.75592 0z" fill-rule="evenodd"></path><path stroke="#4a86e8" stroke-width="2.0" stroke-linejoin="round" stroke-linecap="butt" stroke-dasharray="2.0,6.0" d="m228.4462 137.12993l136.75592 0l0 41.606293l-136.75592 0z" fill-rule="evenodd"></path><path fill="#000000" d="m246.08392 161.11243l1.65625 -0.265625q0.140625 1.0 0.765625 1.53125q0.640625 0.515625 1.78125 0.515625q1.15625 0 1.703125 -0.46875q0.5625 -0.46875 0.5625 -1.09375q0 -0.5625 -0.484375 -0.890625q-0.34375 -0.21875 -1.703125 -0.5625q-1.84375 -0.46875 -2.5625 -0.796875q-0.703125 -0.34375 -1.078125 -0.9375q-0.359375 -0.609375 -0.359375 -1.328125q0 -0.65625 0.296875 -1.21875q0.3125 -0.5625 0.828125 -0.9375q0.390625 -0.28125 1.0625 -0.484375q0.671875 -0.203125 1.4375 -0.203125q1.171875 0 2.046875 0.34375q0.875 0.328125 1.28125 0.90625q0.421875 0.5625 0.578125 1.515625l-1.625 0.21875q-0.109375 -0.75 -0.65625 -1.171875q-0.53125 -0.4375 -1.5 -0.4375q-1.15625 0 -1.640625 0.390625q-0.484375 0.375 -0.484375 0.875q0 0.328125 0.203125 0.59375q0.203125 0.265625 0.640625 0.4375q0.25 0.09375 1.46875 0.4375q1.765625 0.46875 2.46875 0.765625q0.703125 0.296875 1.09375 0.875q0.40625 0.578125 0.40625 1.4375q0 0.828125 -0.484375 1.578125q-0.484375 0.734375 -1.40625 1.140625q-0.921875 0.390625 -2.078125 0.390625q-1.921875 0 -2.9375 -0.796875q-1.0 -0.796875 -1.28125 -2.359375zm9.921875 6.734375l-0.171875 -1.5625q0.546875 0.140625 0.953125 0.140625q0.546875 0 0.875 -0.1875q0.34375 -0.1875 0.5625 -0.515625q0.15625 -0.25 0.5 -1.25q0.046875 -0.140625 0.15625 -0.40625l-3.734375 -9.875l1.796875 0l2.046875 5.71875q0.40625 1.078125 0.71875 2.28125q0.28125 -1.15625 0.6875 -2.25l2.09375 -5.75l1.671875 0l-3.75 10.03125q-0.59375 1.625 -0.9375 2.234375q-0.4375 0.828125 -1.015625 1.203125q-0.578125 0.390625 -1.375 0.390625q-0.484375 0 -1.078125 -0.203125zm8.734375 -6.734375l1.65625 -0.265625q0.140625 1.0 0.765625 1.53125q0.640625 0.515625 1.78125 0.515625q1.15625 0 1.703125 -0.46875q0.5625 -0.46875 0.5625 -1.09375q0 -0.5625 -0.484375 -0.890625q-0.34375 -0.21875 -1.703125 -0.5625q-1.84375 -0.46875 -2.5625 -0.796875q-0.703125 -0.34375 -1.078125 -0.9375q-0.359375 -0.609375 -0.359375 -1.328125q0 -0.65625 0.296875 -1.21875q0.3125 -0.5625 0.828125 -0.9375q0.390625 -0.28125 1.0625 -0.484375q0.671875 -0.203125 1.4375 -0.203125q1.171875 0 2.046875 0.34375q0.875 0.328125 1.28125 0.90625q0.421875 0.5625 0.578125 1.515625l-1.625 0.21875q-0.109375 -0.75 -0.65625 -1.171875q-0.53125 -0.4375 -1.5 -0.4375q-1.15625 0 -1.640625 0.390625q-0.484375 0.375 -0.484375 0.875q0 0.328125 0.203125 0.59375q0.203125 0.265625 0.640625 0.4375q0.25 0.09375 1.46875 0.4375q1.765625 0.46875 2.46875 0.765625q0.703125 0.296875 1.09375 0.875q0.40625 0.578125 0.40625 1.4375q0 0.828125 -0.484375 1.578125q-0.484375 0.734375 -1.40625 1.140625q-0.921875 0.390625 -2.078125 0.390625q-1.921875 0 -2.9375 -0.796875q-1.0 -0.796875 -1.28125 -2.359375zm13.65625 1.4375l0.234375 1.484375q-0.703125 0.140625 -1.265625 0.140625q-0.90625 0 -1.40625 -0.28125q-0.5 -0.296875 -0.703125 -0.75q-0.203125 -0.46875 -0.203125 -1.984375l0 -5.65625l-1.234375 0l0 -1.3125l1.234375 0l0 -2.4375l1.65625 -1.0l0 3.4375l1.6875 0l0 1.3125l-1.6875 0l0 5.75q0 0.71875 0.078125 0.921875q0.09375 0.203125 0.296875 0.328125q0.203125 0.125 0.578125 0.125q0.265625 0 0.734375 -0.078125zm8.277069 -1.671875l1.71875 0.21875q-0.40625 1.5 -1.515625 2.34375q-1.09375 0.828125 -2.8125 0.828125q-2.15625 0 -3.421875 -1.328125q-1.265625 -1.328125 -1.265625 -3.734375q0 -2.484375 1.265625 -3.859375q1.28125 -1.375 3.328125 -1.375q1.984375 0 3.234375 1.34375q1.25 1.34375 1.25 3.796875q0 0.140625 -0.015625 0.4375l-7.34375 0q0.09375 1.625 0.921875 2.484375q0.828125 0.859375 2.0625 0.859375q0.90625 0 1.546875 -0.46875q0.65625 -0.484375 1.046875 -1.546875zm-5.484375 -2.703125l5.5 0q-0.109375 -1.234375 -0.625 -1.859375q-0.796875 -0.96875 -2.078125 -0.96875q-1.140625 0 -1.9375 0.78125q-0.78125 0.765625 -0.859375 2.046875zm9.110077 5.875l0 -9.859375l1.5 0l0 1.390625q0.453125 -0.71875 1.21875 -1.15625q0.78125 -0.453125 1.765625 -0.453125q1.09375 0 1.796875 0.453125q0.703125 0.453125 0.984375 1.28125q1.171875 -1.734375 3.046875 -1.734375q1.46875 0 2.25 0.8125q0.796875 0.8125 0.796875 2.5l0 6.765625l-1.671875 0l0 -6.203125q0 -1.0 -0.15625 -1.4375q-0.15625 -0.453125 -0.59375 -0.71875q-0.421875 -0.265625 -1.0 -0.265625q-1.03125 0 -1.71875 0.6875q-0.6875 0.6875 -0.6875 2.21875l0 5.71875l-1.671875 0l0 -6.40625q0 -1.109375 -0.40625 -1.65625q-0.40625 -0.5625 -1.34375 -0.5625q-0.703125 0 -1.3125 0.375q-0.59375 0.359375 -0.859375 1.078125q-0.265625 0.71875 -0.265625 2.0625l0 5.109375l-1.671875 0zm21.931427 0l0 -1.25q-0.9375 1.46875 -2.75 1.46875q-1.171875 0 -2.171875 -0.640625q-0.984375 -0.65625 -1.53125 -1.8125q-0.53125 -1.171875 -0.53125 -2.6875q0 -1.46875 0.484375 -2.671875q0.5 -1.203125 1.46875 -1.84375q0.984375 -0.640625 2.203125 -0.640625q0.890625 0 1.578125 0.375q0.703125 0.375 1.140625 0.984375l0 -4.875l1.65625 0l0 13.59375l-1.546875 0zm-5.28125 -4.921875q0 1.890625 0.796875 2.828125q0.8125 0.9375 1.890625 0.9375q1.09375 0 1.859375 -0.890625q0.765625 -0.890625 0.765625 -2.734375q0 -2.015625 -0.78125 -2.953125q-0.78125 -0.953125 -1.921875 -0.953125q-1.109375 0 -1.859375 0.90625q-0.75 0.90625 -0.75 2.859375zm8.625732 0.84375l0 -1.6875l5.125 0l0 1.6875l-5.125 0zm6.837677 4.078125l0 -9.859375l1.5 0l0 1.5q0.578125 -1.046875 1.0625 -1.375q0.484375 -0.34375 1.078125 -0.34375q0.84375 0 1.71875 0.546875l-0.578125 1.546875q-0.609375 -0.359375 -1.234375 -0.359375q-0.546875 0 -0.984375 0.328125q-0.421875 0.328125 -0.609375 0.90625q-0.28125 0.890625 -0.28125 1.953125l0 5.15625l-1.671875 0zm12.681427 0l0 -1.453125q-1.140625 1.671875 -3.125 1.671875q-0.859375 0 -1.625 -0.328125q-0.75 -0.34375 -1.125 -0.84375q-0.359375 -0.5 -0.515625 -1.234375q-0.09375 -0.5 -0.09375 -1.5625l0 -6.109375l1.671875 0l0 5.46875q0 1.3125 0.09375 1.765625q0.15625 0.65625 0.671875 1.03125q0.515625 0.375 1.265625 0.375q0.75 0 1.40625 -0.375q0.65625 -0.390625 0.921875 -1.046875q0.28125 -0.671875 0.28125 -1.9375l0 -5.28125l1.671875 0l0 9.859375l-1.5 0zm3.922577 0l0 -9.859375l1.5 0l0 1.40625q1.09375 -1.625 3.140625 -1.625q0.890625 0 1.640625 0.328125q0.75 0.3125 1.109375 0.84375q0.375 0.515625 0.53125 1.21875q0.09375 0.46875 0.09375 1.625l0 6.0625l-1.671875 0l0 -6.0q0 -1.015625 -0.203125 -1.515625q-0.1875 -0.515625 -0.6875 -0.8125q-0.5 -0.296875 -1.171875 -0.296875q-1.0625 0 -1.84375 0.671875q-0.765625 0.671875 -0.765625 2.578125l0 5.375l-1.671875 0z" fill-rule="nonzero"></path><path fill="#000000" fill-opacity="0.0" d="m488.24933 166.979l136.75592 50.992126" fill-rule="evenodd"></path><path stroke="#d5a6bd" stroke-width="4.0" stroke-linejoin="round" stroke-linecap="butt" d="m488.24933 166.979l114.26831 42.607178" fill-rule="evenodd"></path><path fill="#d5a6bd" stroke="#d5a6bd" stroke-width="4.0" stroke-linecap="butt" d="m600.20935 215.77676l19.316772 0.15136719l-14.700195 -12.532532z" fill-rule="evenodd"></path><path fill="#000000" fill-opacity="0.0" d="m488.24933 166.979l152.75592 66.99213" fill-rule="evenodd"></path><path stroke="#d5a6bd" stroke-width="4.0" stroke-linejoin="round" stroke-linecap="butt" d="m488.24933 166.979l130.77667 57.35298" fill-rule="evenodd"></path><path fill="#d5a6bd" stroke="#d5a6bd" stroke-width="4.0" stroke-linecap="butt" d="m616.37244 230.38263l19.277588 1.239914l-13.970459 -13.341187z" fill-rule="evenodd"></path><path fill="#000000" fill-opacity="0.0" d="m488.24933 166.979l168.75592 82.99213" fill-rule="evenodd"></path><path stroke="#d5a6bd" stroke-width="4.0" stroke-linejoin="round" stroke-linecap="butt" d="m488.24933 166.979l147.21936 72.40071" fill-rule="evenodd"></path><path fill="#d5a6bd" stroke="#d5a6bd" stroke-width="4.0" stroke-linecap="butt" d="m632.55304 245.30849l19.204834 2.0820465l-13.373474 -13.939575z" fill-rule="evenodd"></path><path fill="#000000" fill-opacity="0.0" d="m574.3963 156.51443l215.65356 0l0 41.606293l-215.65356 0z" fill-rule="evenodd"></path><path stroke="#4a86e8" stroke-width="2.0" stroke-linejoin="round" stroke-linecap="butt" stroke-dasharray="2.0,6.0" d="m574.3963 156.51443l215.65356 0l0 41.606293l-215.65356 0z" fill-rule="evenodd"></path><path fill="#000000" d="m597.91473 183.43443l0 -9.859375l1.5 0l0 1.5q0.578125 -1.046875 1.0625 -1.375q0.484375 -0.34375 1.078125 -0.34375q0.84375 0 1.71875 0.546875l-0.578125 1.546875q-0.609375 -0.359375 -1.234375 -0.359375q-0.546875 0 -0.984375 0.328125q-0.421875 0.328125 -0.609375 0.90625q-0.28125 0.890625 -0.28125 1.953125l0 5.15625l-1.671875 0zm12.6814575 0l0 -1.453125q-1.140625 1.671875 -3.125 1.671875q-0.859375 0 -1.625 -0.328125q-0.75 -0.34375 -1.125 -0.84375q-0.359375 -0.5 -0.515625 -1.234375q-0.09375 -0.5 -0.09375 -1.5625l0 -6.109375l1.671875 0l0 5.46875q0 1.3125 0.09375 1.765625q0.15625 0.65625 0.671875 1.03125q0.515625 0.375 1.265625 0.375q0.75 0 1.40625 -0.375q0.65625 -0.390625 0.921875 -1.046875q0.28125 -0.671875 0.28125 -1.9375l0 -5.28125l1.671875 0l0 9.859375l-1.5 0zm3.9225464 0l0 -9.859375l1.5 0l0 1.40625q1.09375 -1.625 3.140625 -1.625q0.890625 0 1.640625 0.328125q0.75 0.3125 1.109375 0.84375q0.375 0.515625 0.53125 1.21875q0.09375 0.46875 0.09375 1.625l0 6.0625l-1.671875 0l0 -6.0q0 -1.015625 -0.203125 -1.515625q-0.1875 -0.515625 -0.6875 -0.8125q-0.5 -0.296875 -1.171875 -0.296875q-1.0625 0 -1.84375 0.671875q-0.765625 0.671875 -0.765625 2.578125l0 5.375l-1.671875 0zm21.996521 -1.21875q-0.9375 0.796875 -1.796875 1.125q-0.859375 0.3125 -1.84375 0.3125q-1.609375 0 -2.484375 -0.78125q-0.875 -0.796875 -0.875 -2.03125q0 -0.734375 0.328125 -1.328125q0.328125 -0.59375 0.859375 -0.953125q0.53125 -0.359375 1.203125 -0.546875q0.5 -0.140625 1.484375 -0.25q2.03125 -0.25 2.984375 -0.578125q0 -0.34375 0 -0.4375q0 -1.015625 -0.46875 -1.4375q-0.640625 -0.5625 -1.90625 -0.5625q-1.171875 0 -1.734375 0.40625q-0.5625 0.40625 -0.828125 1.46875l-1.640625 -0.234375q0.234375 -1.046875 0.734375 -1.6875q0.515625 -0.640625 1.46875 -0.984375q0.96875 -0.359375 2.25 -0.359375q1.265625 0 2.046875 0.296875q0.78125 0.296875 1.15625 0.75q0.375 0.453125 0.515625 1.140625q0.09375 0.421875 0.09375 1.53125l0 2.234375q0 2.328125 0.09375 2.953125q0.109375 0.609375 0.4375 1.171875l-1.75 0q-0.265625 -0.515625 -0.328125 -1.21875zm-0.140625 -3.71875q-0.90625 0.359375 -2.734375 0.625q-1.03125 0.140625 -1.453125 0.328125q-0.421875 0.1875 -0.65625 0.546875q-0.234375 0.359375 -0.234375 0.796875q0 0.671875 0.5 1.125q0.515625 0.4375 1.484375 0.4375q0.96875 0 1.71875 -0.421875q0.75 -0.4375 1.109375 -1.15625q0.265625 -0.578125 0.265625 -1.671875l0 -0.609375zm3.4069824 2.0l1.65625 -0.265625q0.140625 1.0 0.765625 1.53125q0.640625 0.515625 1.78125 0.515625q1.15625 0 1.703125 -0.46875q0.5625 -0.46875 0.5625 -1.09375q0 -0.5625 -0.484375 -0.890625q-0.34375 -0.21875 -1.703125 -0.5625q-1.84375 -0.46875 -2.5625 -0.796875q-0.703125 -0.34375 -1.078125 -0.9375q-0.359375 -0.609375 -0.359375 -1.328125q0 -0.65625 0.296875 -1.21875q0.3125 -0.5625 0.828125 -0.9375q0.390625 -0.28125 1.0625 -0.484375q0.671875 -0.203125 1.4375 -0.203125q1.171875 0 2.046875 0.34375q0.875 0.328125 1.28125 0.90625q0.421875 0.5625 0.578125 1.515625l-1.625 0.21875q-0.109375 -0.75 -0.65625 -1.171875q-0.53125 -0.4375 -1.5 -0.4375q-1.15625 0 -1.640625 0.390625q-0.484375 0.375 -0.484375 0.875q0 0.328125 0.203125 0.59375q0.203125 0.265625 0.640625 0.4375q0.25 0.09375 1.46875 0.4375q1.765625 0.46875 2.46875 0.765625q0.703125 0.296875 1.09375 0.875q0.40625 0.578125 0.40625 1.4375q0 0.828125 -0.484375 1.578125q-0.484375 0.734375 -1.40625 1.140625q-0.921875 0.390625 -2.078125 0.390625q-1.921875 0 -2.9375 -0.796875q-1.0 -0.796875 -1.28125 -2.359375zm14.511414 0l1.65625 -0.265625q0.140625 1.0 0.765625 1.53125q0.640625 0.515625 1.78125 0.515625q1.15625 0 1.703125 -0.46875q0.5625 -0.46875 0.5625 -1.09375q0 -0.5625 -0.484375 -0.890625q-0.34375 -0.21875 -1.703125 -0.5625q-1.84375 -0.46875 -2.5625 -0.796875q-0.703125 -0.34375 -1.078125 -0.9375q-0.359375 -0.609375 -0.359375 -1.328125q0 -0.65625 0.296875 -1.21875q0.3125 -0.5625 0.828125 -0.9375q0.390625 -0.28125 1.0625 -0.484375q0.671875 -0.203125 1.4375 -0.203125q1.171875 0 2.046875 0.34375q0.875 0.328125 1.28125 0.90625q0.421875 0.5625 0.578125 1.515625l-1.625 0.21875q-0.109375 -0.75 -0.65625 -1.171875q-0.53125 -0.4375 -1.5 -0.4375q-1.15625 0 -1.640625 0.390625q-0.484375 0.375 -0.484375 0.875q0 0.328125 0.203125 0.59375q0.203125 0.265625 0.640625 0.4375q0.25 0.09375 1.46875 0.4375q1.765625 0.46875 2.46875 0.765625q0.703125 0.296875 1.09375 0.875q0.40625 0.578125 0.40625 1.4375q0 0.828125 -0.484375 1.578125q-0.484375 0.734375 -1.40625 1.140625q-0.921875 0.390625 -2.078125 0.390625q-1.921875 0 -2.9375 -0.796875q-1.0 -0.796875 -1.28125 -2.359375zm9.921875 6.734375l-0.171875 -1.5625q0.546875 0.140625 0.953125 0.140625q0.546875 0 0.875 -0.1875q0.34375 -0.1875 0.5625 -0.515625q0.15625 -0.25 0.5 -1.25q0.046875 -0.140625 0.15625 -0.40625l-3.734375 -9.875l1.796875 0l2.046875 5.71875q0.40625 1.078125 0.71875 2.28125q0.28125 -1.15625 0.6875 -2.25l2.09375 -5.75l1.671875 0l-3.75 10.03125q-0.59375 1.625 -0.9375 2.234375q-0.4375 0.828125 -1.015625 1.203125q-0.578125 0.390625 -1.375 0.390625q-0.484375 0 -1.078125 -0.203125zm8.734375 -6.734375l1.65625 -0.265625q0.140625 1.0 0.765625 1.53125q0.640625 0.515625 1.78125 0.515625q1.15625 0 1.703125 -0.46875q0.5625 -0.46875 0.5625 -1.09375q0 -0.5625 -0.484375 -0.890625q-0.34375 -0.21875 -1.703125 -0.5625q-1.84375 -0.46875 -2.5625 -0.796875q-0.703125 -0.34375 -1.078125 -0.9375q-0.359375 -0.609375 -0.359375 -1.328125q0 -0.65625 0.296875 -1.21875q0.3125 -0.5625 0.828125 -0.9375q0.390625 -0.28125 1.0625 -0.484375q0.671875 -0.203125 1.4375 -0.203125q1.171875 0 2.046875 0.34375q0.875 0.328125 1.28125 0.90625q0.421875 0.5625 0.578125 1.515625l-1.625 0.21875q-0.109375 -0.75 -0.65625 -1.171875q-0.53125 -0.4375 -1.5 -0.4375q-1.15625 0 -1.640625 0.390625q-0.484375 0.375 -0.484375 0.875q0 0.328125 0.203125 0.59375q0.203125 0.265625 0.640625 0.4375q0.25 0.09375 1.46875 0.4375q1.765625 0.46875 2.46875 0.765625q0.703125 0.296875 1.09375 0.875q0.40625 0.578125 0.40625 1.4375q0 0.828125 -0.484375 1.578125q-0.484375 0.734375 -1.40625 1.140625q-0.921875 0.390625 -2.078125 0.390625q-1.921875 0 -2.9375 -0.796875q-1.0 -0.796875 -1.28125 -2.359375zm13.65625 1.4375l0.234375 1.484375q-0.703125 0.140625 -1.265625 0.140625q-0.90625 0 -1.40625 -0.28125q-0.5 -0.296875 -0.703125 -0.75q-0.203125 -0.46875 -0.203125 -1.984375l0 -5.65625l-1.234375 0l0 -1.3125l1.234375 0l0 -2.4375l1.65625 -1.0l0 3.4375l1.6875 0l0 1.3125l-1.6875 0l0 5.75q0 0.71875 0.078125 0.921875q0.09375 0.203125 0.296875 0.328125q0.203125 0.125 0.578125 0.125q0.265625 0 0.734375 -0.078125zm8.2771 -1.671875l1.71875 0.21875q-0.40625 1.5 -1.515625 2.34375q-1.09375 0.828125 -2.8125 0.828125q-2.15625 0 -3.421875 -1.328125q-1.265625 -1.328125 -1.265625 -3.734375q0 -2.484375 1.265625 -3.859375q1.28125 -1.375 3.328125 -1.375q1.984375 0 3.234375 1.34375q1.25 1.34375 1.25 3.796875q0 0.140625 -0.015625 0.4375l-7.34375 0q0.09375 1.625 0.921875 2.484375q0.828125 0.859375 2.0625 0.859375q0.90625 0 1.546875 -0.46875q0.65625 -0.484375 1.046875 -1.546875zm-5.484375 -2.703125l5.5 0q-0.109375 -1.234375 -0.625 -1.859375q-0.796875 -0.96875 -2.078125 -0.96875q-1.140625 0 -1.9375 0.78125q-0.78125 0.765625 -0.859375 2.046875zm9.110046 5.875l0 -9.859375l1.5 0l0 1.390625q0.453125 -0.71875 1.21875 -1.15625q0.78125 -0.453125 1.765625 -0.453125q1.09375 0 1.796875 0.453125q0.703125 0.453125 0.984375 1.28125q1.171875 -1.734375 3.046875 -1.734375q1.46875 0 2.25 0.8125q0.796875 0.8125 0.796875 2.5l0 6.765625l-1.671875 0l0 -6.203125q0 -1.0 -0.15625 -1.4375q-0.15625 -0.453125 -0.59375 -0.71875q-0.421875 -0.265625 -1.0 -0.265625q-1.03125 0 -1.71875 0.6875q-0.6875 0.6875 -0.6875 2.21875l0 5.71875l-1.671875 0l0 -6.40625q0 -1.109375 -0.40625 -1.65625q-0.40625 -0.5625 -1.34375 -0.5625q-0.703125 0 -1.3125 0.375q-0.59375 0.359375 -0.859375 1.078125q-0.265625 0.71875 -0.265625 2.0625l0 5.109375l-1.671875 0zm21.931458 0l0 -1.25q-0.9375 1.46875 -2.75 1.46875q-1.171875 0 -2.171875 -0.640625q-0.984375 -0.65625 -1.53125 -1.8125q-0.53125 -1.171875 -0.53125 -2.6875q0 -1.46875 0.484375 -2.671875q0.5 -1.203125 1.46875 -1.84375q0.984375 -0.640625 2.203125 -0.640625q0.890625 0 1.578125 0.375q0.703125 0.375 1.140625 0.984375l0 -4.875l1.65625 0l0 13.59375l-1.546875 0zm-5.28125 -4.921875q0 1.890625 0.796875 2.828125q0.8125 0.9375 1.890625 0.9375q1.09375 0 1.859375 -0.890625q0.765625 -0.890625 0.765625 -2.734375q0 -2.015625 -0.78125 -2.953125q-0.78125 -0.953125 -1.921875 -0.953125q-1.109375 0 -1.859375 0.90625q-0.75 0.90625 -0.75 2.859375zm20.902771 4.921875l0 -1.453125q-1.140625 1.671875 -3.125 1.671875q-0.859375 0 -1.625 -0.328125q-0.75 -0.34375 -1.125 -0.84375q-0.359375 -0.5 -0.515625 -1.234375q-0.09375 -0.5 -0.09375 -1.5625l0 -6.109375l1.671875 0l0 5.46875q0 1.3125 0.09375 1.765625q0.15625 0.65625 0.671875 1.03125q0.515625 0.375 1.265625 0.375q0.75 0 1.40625 -0.375q0.65625 -0.390625 0.921875 -1.046875q0.28125 -0.671875 0.28125 -1.9375l0 -5.28125l1.671875 0l0 9.859375l-1.5 0zm3.9226074 0l0 -9.859375l1.5 0l0 1.40625q1.09375 -1.625 3.140625 -1.625q0.890625 0 1.640625 0.328125q0.75 0.3125 1.109375 0.84375q0.375 0.515625 0.53125 1.21875q0.09375 0.46875 0.09375 1.625l0 6.0625l-1.671875 0l0 -6.0q0 -1.015625 -0.203125 -1.515625q-0.1875 -0.515625 -0.6875 -0.8125q-0.5 -0.296875 -1.171875 -0.296875q-1.0625 0 -1.84375 0.671875q-0.765625 0.671875 -0.765625 2.578125l0 5.375l-1.671875 0zm10.391296 -11.6875l0 -1.90625l1.671875 0l0 1.90625l-1.671875 0zm0 11.6875l0 -9.859375l1.671875 0l0 9.859375l-1.671875 0zm7.7854614 -1.5l0.234375 1.484375q-0.703125 0.140625 -1.265625 0.140625q-0.90625 0 -1.40625 -0.28125q-0.5 -0.296875 -0.703125 -0.75q-0.203125 -0.46875 -0.203125 -1.984375l0 -5.65625l-1.234375 0l0 -1.3125l1.234375 0l0 -2.4375l1.65625 -1.0l0 3.4375l1.6875 0l0 1.3125l-1.6875 0l0 5.75q0 0.71875 0.078125 0.921875q0.09375 0.203125 0.296875 0.328125q0.203125 0.125 0.578125 0.125q0.265625 0 0.734375 -0.078125zm0.8551636 -1.4375l1.65625 -0.265625q0.140625 1.0 0.765625 1.53125q0.640625 0.515625 1.78125 0.515625q1.15625 0 1.703125 -0.46875q0.5625 -0.46875 0.5625 -1.09375q0 -0.5625 -0.484375 -0.890625q-0.34375 -0.21875 -1.703125 -0.5625q-1.84375 -0.46875 -2.5625 -0.796875q-0.703125 -0.34375 -1.078125 -0.9375q-0.359375 -0.609375 -0.359375 -1.328125q0 -0.65625 0.296875 -1.21875q0.3125 -0.5625 0.828125 -0.9375q0.390625 -0.28125 1.0625 -0.484375q0.671875 -0.203125 1.4375 -0.203125q1.171875 0 2.046875 0.34375q0.875 0.328125 1.28125 0.90625q0.421875 0.5625 0.578125 1.515625l-1.625 0.21875q-0.109375 -0.75 -0.65625 -1.171875q-0.53125 -0.4375 -1.5 -0.4375q-1.15625 0 -1.640625 0.390625q-0.484375 0.375 -0.484375 0.875q0 0.328125 0.203125 0.59375q0.203125 0.265625 0.640625 0.4375q0.25 0.09375 1.46875 0.4375q1.765625 0.46875 2.46875 0.765625q0.703125 0.296875 1.09375 0.875q0.40625 0.578125 0.40625 1.4375q0 0.828125 -0.484375 1.578125q-0.484375 0.734375 -1.40625 1.140625q-0.921875 0.390625 -2.078125 0.390625q-1.921875 0 -2.9375 -0.796875q-1.0 -0.796875 -1.28125 -2.359375z" fill-rule="nonzero"></path><path fill="#000000" fill-opacity="0.0" d="m402.10236 258.13647l152.75592 -4.94487" fill-rule="evenodd"></path><path stroke="#d5a6bd" stroke-width="4.0" stroke-linejoin="round" stroke-linecap="butt" d="m402.10236 258.13647l139.05475 -4.501343" fill-rule="evenodd"></path><path fill="#d5a6bd" stroke="#d5a6bd" stroke-width="4.0" stroke-linecap="butt" d="m541.1571 253.63512l-4.350464 4.6415253l12.207092 -4.8958435l-12.498169 -4.096115z" fill-rule="evenodd"></path><path fill="#000000" fill-opacity="0.0" d="m406.23227 204.99475l144.50394 0l0 41.606293l-144.50394 0z" fill-rule="evenodd"></path><path stroke="#4a86e8" stroke-width="2.0" stroke-linejoin="round" stroke-linecap="butt" stroke-dasharray="2.0,6.0" d="m406.23227 204.99475l144.50394 0l0 41.606293l-144.50394 0z" fill-rule="evenodd"></path><path fill="#000000" d="m422.30945 229.55228q-0.59375 0.5 -1.140625 0.703125q-0.53125 0.203125 -1.15625 0.203125q-1.03125 0 -1.578125 -0.5q-0.546875 -0.5 -0.546875 -1.28125q0 -0.453125 0.203125 -0.828125q0.203125 -0.390625 0.546875 -0.609375q0.34375 -0.234375 0.765625 -0.34375q0.296875 -0.09375 0.9375 -0.171875q1.265625 -0.140625 1.875 -0.359375q0 -0.21875 0 -0.265625q0 -0.65625 -0.296875 -0.921875q-0.40625 -0.34375 -1.203125 -0.34375q-0.734375 0 -1.09375 0.265625q-0.359375 0.25 -0.53125 0.90625l-1.03125 -0.140625q0.140625 -0.65625 0.46875 -1.0625q0.328125 -0.40625 0.9375 -0.625q0.609375 -0.21875 1.40625 -0.21875q0.796875 0 1.296875 0.1875q0.5 0.1875 0.734375 0.46875q0.234375 0.28125 0.328125 0.71875q0.046875 0.265625 0.046875 0.96875l0 1.40625q0 1.46875 0.0625 1.859375q0.078125 0.390625 0.28125 0.75l-1.109375 0q-0.15625 -0.328125 -0.203125 -0.765625zm-0.09375 -2.359375q-0.578125 0.234375 -1.71875 0.40625q-0.65625 0.09375 -0.921875 0.21875q-0.265625 0.109375 -0.421875 0.328125q-0.140625 0.21875 -0.140625 0.5q0 0.421875 0.3125 0.703125q0.328125 0.28125 0.9375 0.28125q0.609375 0 1.078125 -0.265625q0.484375 -0.265625 0.703125 -0.734375q0.171875 -0.359375 0.171875 -1.046875l0 -0.390625zm6.736328 3.125l0 -0.78125q-0.59375 0.921875 -1.734375 0.921875q-0.75 0 -1.375 -0.40625q-0.625 -0.421875 -0.96875 -1.15625q-0.34375 -0.734375 -0.34375 -1.6875q0 -0.921875 0.3125 -1.6875q0.3125 -0.765625 0.9375 -1.15625q0.625 -0.40625 1.390625 -0.40625q0.5625 0 1.0 0.234375q0.4375 0.234375 0.71875 0.609375l0 -3.078125l1.046875 0l0 8.59375l-0.984375 0zm-3.328125 -3.109375q0 1.203125 0.5 1.796875q0.5 0.578125 1.1875 0.578125q0.6875 0 1.171875 -0.5625q0.484375 -0.5625 0.484375 -1.71875q0 -1.28125 -0.5 -1.875q-0.484375 -0.59375 -1.203125 -0.59375q-0.703125 0 -1.171875 0.578125q-0.46875 0.5625 -0.46875 1.796875zm10.001953 3.109375l0 -0.78125q-0.59375 0.921875 -1.734375 0.921875q-0.75 0 -1.375 -0.40625q-0.625 -0.421875 -0.96875 -1.15625q-0.34375 -0.734375 -0.34375 -1.6875q0 -0.921875 0.3125 -1.6875q0.3125 -0.765625 0.9375 -1.15625q0.625 -0.40625 1.390625 -0.40625q0.5625 0 1.0 0.234375q0.4375 0.234375 0.71875 0.609375l0 -3.078125l1.046875 0l0 8.59375l-0.984375 0zm-3.328125 -3.109375q0 1.203125 0.5 1.796875q0.5 0.578125 1.1875 0.578125q0.6875 0 1.171875 -0.5625q0.484375 -0.5625 0.484375 -1.71875q0 -1.28125 -0.5 -1.875q-0.484375 -0.59375 -1.203125 -0.59375q-0.703125 0 -1.171875 0.578125q-0.46875 0.5625 -0.46875 1.796875zm5.173828 3.25l2.484375 -8.875l0.84375 0l-2.484375 8.875l-0.84375 0zm4.1152344 -0.140625l0 -6.21875l0.953125 0l0 0.9375q0.359375 -0.65625 0.65625 -0.859375q0.3125 -0.21875 0.6875 -0.21875q0.53125 0 1.078125 0.328125l-0.359375 0.984375q-0.390625 -0.234375 -0.765625 -0.234375q-0.359375 0 -0.640625 0.21875q-0.265625 0.203125 -0.375 0.578125q-0.1875 0.5625 -0.1875 1.21875l0 3.265625l-1.046875 0zm8.261719 -2.0l1.09375 0.125q-0.25 0.953125 -0.953125 1.484375q-0.703125 0.53125 -1.78125 0.53125q-1.359375 0 -2.171875 -0.84375q-0.796875 -0.84375 -0.796875 -2.359375q0 -1.5625 0.8125 -2.421875q0.8125 -0.875 2.09375 -0.875q1.25 0 2.03125 0.84375q0.796875 0.84375 0.796875 2.390625q0 0.09375 0 0.28125l-4.640625 0q0.0625 1.03125 0.578125 1.578125q0.515625 0.53125 1.296875 0.53125q0.578125 0 0.984375 -0.296875q0.421875 -0.3125 0.65625 -0.96875zm-3.453125 -1.703125l3.46875 0q-0.0625 -0.796875 -0.390625 -1.1875q-0.515625 -0.609375 -1.3125 -0.609375q-0.734375 0 -1.234375 0.484375q-0.484375 0.484375 -0.53125 1.3125zm5.876953 3.703125l0 -6.21875l0.9375 0l0 0.875q0.296875 -0.46875 0.78125 -0.734375q0.484375 -0.28125 1.109375 -0.28125q0.6875 0 1.125 0.28125q0.453125 0.28125 0.625 0.796875q0.75 -1.078125 1.921875 -1.078125q0.9375 0 1.421875 0.515625q0.5 0.5 0.5 1.578125l0 4.265625l-1.046875 0l0 -3.921875q0 -0.625 -0.109375 -0.90625q-0.09375 -0.28125 -0.359375 -0.453125q-0.265625 -0.171875 -0.640625 -0.171875q-0.65625 0 -1.09375 0.4375q-0.421875 0.4375 -0.421875 1.40625l0 3.609375l-1.0625 0l0 -4.046875q0 -0.703125 -0.265625 -1.046875q-0.25 -0.359375 -0.828125 -0.359375q-0.453125 0 -0.828125 0.234375q-0.375 0.234375 -0.546875 0.6875q-0.171875 0.453125 -0.171875 1.296875l0 3.234375l-1.046875 0zm9.605469 -3.109375q0 -1.734375 0.953125 -2.5625q0.796875 -0.6875 1.953125 -0.6875q1.28125 0 2.09375 0.84375q0.828125 0.828125 0.828125 2.3125q0 1.203125 -0.359375 1.890625q-0.359375 0.6875 -1.0625 1.078125q-0.6875 0.375 -1.5 0.375q-1.296875 0 -2.109375 -0.828125q-0.796875 -0.84375 -0.796875 -2.421875zm1.078125 0q0 1.1875 0.515625 1.78125q0.53125 0.59375 1.3125 0.59375q0.796875 0 1.3125 -0.59375q0.515625 -0.59375 0.515625 -1.8125q0 -1.15625 -0.53125 -1.75q-0.515625 -0.59375 -1.296875 -0.59375q-0.78125 0 -1.3125 0.59375q-0.515625 0.578125 -0.515625 1.78125zm7.705078 3.109375l-2.359375 -6.21875l1.109375 0l1.34375 3.71875q0.203125 0.609375 0.390625 1.25q0.140625 -0.484375 0.390625 -1.171875l1.390625 -3.796875l1.078125 0l-2.359375 6.21875l-0.984375 0zm8.53125 -2.0l1.09375 0.125q-0.25 0.953125 -0.953125 1.484375q-0.703125 0.53125 -1.78125 0.53125q-1.359375 0 -2.171875 -0.84375q-0.796875 -0.84375 -0.796875 -2.359375q0 -1.5625 0.8125 -2.421875q0.8125 -0.875 2.09375 -0.875q1.25 0 2.03125 0.84375q0.796875 0.84375 0.796875 2.390625q0 0.09375 0 0.28125l-4.640625 0q0.0625 1.03125 0.578125 1.578125q0.515625 0.53125 1.296875 0.53125q0.578125 0 0.984375 -0.296875q0.421875 -0.3125 0.65625 -0.96875zm-3.453125 -1.703125l3.46875 0q-0.0625 -0.796875 -0.390625 -1.1875q-0.515625 -0.609375 -1.3125 -0.609375q-0.734375 0 -1.234375 0.484375q-0.484375 0.484375 -0.53125 1.3125zm13.2734375 1.421875l1.03125 0.140625q-0.171875 1.0625 -0.875 1.671875q-0.703125 0.609375 -1.71875 0.609375q-1.28125 0 -2.0625 -0.828125q-0.765625 -0.84375 -0.765625 -2.40625q0 -1.0 0.328125 -1.75q0.34375 -0.765625 1.015625 -1.140625q0.6875 -0.375 1.5 -0.375q1.0 0 1.640625 0.515625q0.65625 0.5 0.84375 1.453125l-1.03125 0.15625q-0.140625 -0.625 -0.515625 -0.9375q-0.375 -0.328125 -0.90625 -0.328125q-0.796875 0 -1.296875 0.578125q-0.5 0.5625 -0.5 1.796875q0 1.265625 0.484375 1.828125q0.484375 0.5625 1.25 0.5625q0.625 0 1.03125 -0.375q0.421875 -0.375 0.546875 -1.171875zm1.546875 -0.828125q0 -1.734375 0.953125 -2.5625q0.796875 -0.6875 1.953125 -0.6875q1.28125 0 2.09375 0.84375q0.828125 0.828125 0.828125 2.3125q0 1.203125 -0.359375 1.890625q-0.359375 0.6875 -1.0625 1.078125q-0.6875 0.375 -1.5 0.375q-1.296875 0 -2.109375 -0.828125q-0.796875 -0.84375 -0.796875 -2.421875zm1.078125 0q0 1.1875 0.515625 1.78125q0.53125 0.59375 1.3125 0.59375q0.796875 0 1.3125 -0.59375q0.515625 -0.59375 0.515625 -1.8125q0 -1.15625 -0.53125 -1.75q-0.515625 -0.59375 -1.296875 -0.59375q-0.78125 0 -1.3125 0.59375q-0.515625 0.578125 -0.515625 1.78125zm5.986328 3.109375l0 -6.21875l0.9375 0l0 0.875q0.6875 -1.015625 1.984375 -1.015625q0.5625 0 1.03125 0.203125q0.484375 0.203125 0.71875 0.53125q0.234375 0.328125 0.328125 0.765625q0.046875 0.296875 0.046875 1.03125l0 3.828125l-1.046875 0l0 -3.78125q0 -0.65625 -0.125 -0.96875q-0.125 -0.3125 -0.4375 -0.5q-0.3125 -0.203125 -0.734375 -0.203125q-0.671875 0 -1.171875 0.4375q-0.484375 0.421875 -0.484375 1.609375l0 3.40625l-1.046875 0zm8.970703 -0.9375l0.15625 0.921875q-0.453125 0.09375 -0.796875 0.09375q-0.578125 0 -0.890625 -0.171875q-0.3125 -0.1875 -0.453125 -0.484375q-0.125 -0.296875 -0.125 -1.25l0 -3.578125l-0.765625 0l0 -0.8125l0.765625 0l0 -1.546875l1.046875 -0.625l0 2.171875l1.0625 0l0 0.8125l-1.0625 0l0 3.640625q0 0.453125 0.046875 0.578125q0.0625 0.125 0.1875 0.203125q0.125 0.078125 0.359375 0.078125q0.1875 0 0.46875 -0.03125zm5.0996094 0.171875q-0.59375 0.5 -1.140625 0.703125q-0.53125 0.203125 -1.15625 0.203125q-1.03125 0 -1.578125 -0.5q-0.546875 -0.5 -0.546875 -1.28125q0 -0.453125 0.203125 -0.828125q0.203125 -0.390625 0.546875 -0.609375q0.34375 -0.234375 0.765625 -0.34375q0.296875 -0.09375 0.9375 -0.171875q1.265625 -0.140625 1.875 -0.359375q0 -0.21875 0 -0.265625q0 -0.65625 -0.296875 -0.921875q-0.40625 -0.34375 -1.203125 -0.34375q-0.734375 0 -1.09375 0.265625q-0.359375 0.25 -0.53125 0.90625l-1.03125 -0.140625q0.140625 -0.65625 0.46875 -1.0625q0.328125 -0.40625 0.9375 -0.625q0.609375 -0.21875 1.40625 -0.21875q0.796875 0 1.296875 0.1875q0.5 0.1875 0.734375 0.46875q0.234375 0.28125 0.328125 0.71875q0.046875 0.265625 0.046875 0.96875l0 1.40625q0 1.46875 0.0625 1.859375q0.078125 0.390625 0.28125 0.75l-1.109375 0q-0.15625 -0.328125 -0.203125 -0.765625zm-0.09375 -2.359375q-0.578125 0.234375 -1.71875 0.40625q-0.65625 0.09375 -0.921875 0.21875q-0.265625 0.109375 -0.421875 0.328125q-0.140625 0.21875 -0.140625 0.5q0 0.421875 0.3125 0.703125q0.328125 0.28125 0.9375 0.28125q0.609375 0 1.078125 -0.265625q0.484375 -0.265625 0.703125 -0.734375q0.171875 -0.359375 0.171875 -1.046875l0 -0.390625zm2.7050781 -4.25l0 -1.21875l1.0625 0l0 1.21875l-1.0625 0zm0 7.375l0 -6.21875l1.0625 0l0 6.21875l-1.0625 0zm2.6660156 0l0 -6.21875l0.9375 0l0 0.875q0.6875 -1.015625 1.984375 -1.015625q0.5625 0 1.03125 0.203125q0.484375 0.203125 0.71875 0.53125q0.234375 0.328125 0.328125 0.765625q0.046875 0.296875 0.046875 1.03125l0 3.828125l-1.046875 0l0 -3.78125q0 -0.65625 -0.125 -0.96875q-0.125 -0.3125 -0.4375 -0.5q-0.3125 -0.203125 -0.734375 -0.203125q-0.671875 0 -1.171875 0.4375q-0.484375 0.421875 -0.484375 1.609375l0 3.40625l-1.046875 0zm10.923828 -2.0l1.09375 0.125q-0.25 0.953125 -0.953125 1.484375q-0.703125 0.53125 -1.78125 0.53125q-1.359375 0 -2.171875 -0.84375q-0.796875 -0.84375 -0.796875 -2.359375q0 -1.5625 0.8125 -2.421875q0.8125 -0.875 2.09375 -0.875q1.25 0 2.03125 0.84375q0.796875 0.84375 0.796875 2.390625q0 0.09375 0 0.28125l-4.640625 0q0.0625 1.03125 0.578125 1.578125q0.515625 0.53125 1.296875 0.53125q0.578125 0 0.984375 -0.296875q0.421875 -0.3125 0.65625 -0.96875zm-3.453125 -1.703125l3.46875 0q-0.0625 -0.796875 -0.390625 -1.1875q-0.515625 -0.609375 -1.3125 -0.609375q-0.734375 0 -1.234375 0.484375q-0.484375 0.484375 -0.53125 1.3125zm5.861328 3.703125l0 -6.21875l0.953125 0l0 0.9375q0.359375 -0.65625 0.65625 -0.859375q0.3125 -0.21875 0.6875 -0.21875q0.53125 0 1.078125 0.328125l-0.359375 0.984375q-0.390625 -0.234375 -0.765625 -0.234375q-0.359375 0 -0.640625 0.21875q-0.265625 0.203125 -0.375 0.578125q-0.1875 0.5625 -0.1875 1.21875l0 3.265625l-1.046875 0zm3.5898438 -1.859375l1.03125 -0.15625q0.09375 0.625 0.484375 0.953125q0.40625 0.328125 1.140625 0.328125q0.71875 0 1.0625 -0.28125q0.359375 -0.296875 0.359375 -0.703125q0 -0.359375 -0.3125 -0.5625q-0.21875 -0.140625 -1.078125 -0.359375q-1.15625 -0.296875 -1.609375 -0.5q-0.4375 -0.21875 -0.671875 -0.59375q-0.234375 -0.375 -0.234375 -0.84375q0 -0.40625 0.1875 -0.765625q0.1875 -0.359375 0.515625 -0.59375q0.25 -0.171875 0.671875 -0.296875q0.421875 -0.125 0.921875 -0.125q0.71875 0 1.265625 0.21875q0.5625 0.203125 0.828125 0.5625q0.265625 0.359375 0.359375 0.953125l-1.03125 0.140625q-0.0625 -0.46875 -0.40625 -0.734375q-0.328125 -0.28125 -0.953125 -0.28125q-0.71875 0 -1.03125 0.25q-0.3125 0.234375 -0.3125 0.5625q0 0.203125 0.125 0.359375q0.140625 0.171875 0.40625 0.28125q0.15625 0.0625 0.9375 0.265625q1.125 0.3125 1.5625 0.5q0.4375 0.1875 0.6875 0.546875q0.25 0.359375 0.25 0.90625q0 0.53125 -0.3125 1.0q-0.296875 0.453125 -0.875 0.71875q-0.578125 0.25 -1.3125 0.25q-1.21875 0 -1.859375 -0.5q-0.625 -0.515625 -0.796875 -1.5z" fill-rule="nonzero"></path></g></svg>

